<svg version="1.1" xmlns="http://www.w3.org/2000/svg" viewBox="0 0 614.592493263185 580.9722585510463" width="614.592493263185" height="580.9722585510463" filter="invert(93%) hue-rotate(180deg)">
  <!-- svg-source:excalidraw -->
  
  <defs>
    <style>
      @font-face {
        font-family: "Virgil";
        src: url("https://excalidraw.com/Virgil.woff2");
      }
      @font-face {
        font-family: "Cascadia";
        src: url("https://excalidraw.com/Cascadia.woff2");
      }
    </style>
  </defs>
  <rect x="0" y="0" width="614.592493263185" height="580.9722585510463" fill="#ffffff"></rect><g stroke-linecap="round" transform="translate(11.41445371240377 10) rotate(0 140 270)"><path d="M0.18 -0.3 C56.59 -0.94, 112.55 -1.82, 279.01 -0.25 M0.03 -0.66 C63.66 -0.95, 125.9 -0.7, 280.02 0.52 M280.31 0.42 C279.76 157.6, 279.5 316.17, 279.3 540.56 M279.76 -0.19 C278.81 200.27, 278.81 400.95, 280.09 540.18 M279.21 541.38 C177.4 539.44, 70.83 539.2, 0.94 538.92 M279.91 540.03 C213.28 539.66, 145.86 538.98, -0.02 539.51 M0.18 539.2 C-0.05 385.99, -0.01 231.25, -0.03 0.72 M0.17 539.78 C0.82 359.64, 0.93 179.38, 0.02 -0.35" stroke="#000000" stroke-width="1" fill="none"></path></g><g stroke-linecap="round"><g transform="translate(11.41445371240377 30) rotate(0 149.25105521868915 0.3784406367325346)"><path d="M0.03 0.82 C50.02 0.77, 249.92 -0.27, 299.92 -0.33 M-1.41 0.2 C48.42 0.34, 248.81 1.34, 298.92 1.03" stroke="#000000" stroke-width="1" fill="none"></path></g></g><g stroke-linecap="round"><g transform="translate(11.41445371240377 150) rotate(0 140.20112322680654 0.37588616240768147)"><path d="M-0.71 -0.57 C46.28 -0.88, 234.14 -0.96, 281.12 -0.99 M1.11 1.74 C48.12 1.48, 234.12 0.3, 280.76 0.03" stroke="#000000" stroke-width="1" fill="none"></path></g></g><g stroke-linecap="round"><g transform="translate(271.41445371240377 90) rotate(0 20.367587903253764 0.0008994154229640117)"><path d="M-0.68 0.74 C5.92 0.78, 32.57 -0.52, 39.15 -0.74 M1.16 0.08 C8.19 0.35, 34.76 0.35, 41.42 0.41" stroke="#000000" stroke-width="1" fill="none"></path></g></g><g stroke-linecap="round"><g transform="translate(331.41445371240377 70) rotate(0 0.23272430758316887 20.24566250560804)"><path d="M-0.56 -0.14 C-0.43 6.75, -0.22 33.59, 0.05 40.14 M1.34 -1.26 C1.38 5.95, -0.79 34.86, -0.88 41.75" stroke="#000000" stroke-width="1" fill="none"></path></g></g><g stroke-linecap="round"><g transform="translate(351.41445371240377 70) rotate(0 0.012647060779443109 20.34019523541444)"><path d="M1.04 -0.81 C1.03 5.83, 0.28 33.19, -0.02 39.97 M0.13 1.38 C-0.04 8.21, -1.25 34.88, -0.98 41.49" stroke="#000000" stroke-width="1" fill="none"></path></g></g><g stroke-linecap="round"><g transform="translate(331.41445371240377 90) rotate(0 9.656656556203927 -0.25943695189430116)"><path d="M-0.76 -0.16 C2.59 -0.24, 16.57 -0.33, 20.08 -0.5 M1.04 -1.3 C4.24 -1.21, 16.07 0.65, 19.17 0.78" stroke="#000000" stroke-width="1" fill="none"></path></g></g><g stroke-linecap="round"><g transform="translate(371.41445371240377 90) rotate(0 10.195064768306906 10.559921797215921)"><path d="M-0.5 0.27 C2.66 3.62, 15.24 16.82, 18.8 20.14 M1.44 -0.63 C4.96 2.92, 17.7 18.05, 20.89 21.75" stroke="#000000" stroke-width="1" fill="none"></path></g></g><g stroke-linecap="round"><g transform="translate(111.41445371240377 170) rotate(0 30.943091943562024 -0.44028823199960243)"><path d="M1.07 0.41 C10.86 0.5, 49.44 0.64, 59.34 0.46 M0.18 -0.42 C10.3 -0.7, 51.74 -1.54, 61.71 -1.42" stroke="#000000" stroke-width="1" fill="none"></path></g></g><g stroke-linecap="round"><g transform="translate(71.41445371240377 190) rotate(0 79.81677556295881 0.5615220042641909)"><path d="M0.23 -0.77 C27.13 -0.59, 134.29 -0.18, 160.75 0.05 M-1.11 1.43 C25.75 1.92, 133.12 2.09, 160.19 1.62" stroke="#000000" stroke-width="1" fill="none"></path></g></g><g stroke-linecap="round" transform="translate(31.41445371240377 210) rotate(0 40 50)"><path d="M0.46 0.8 C17.8 1.01, 34.53 0.15, 80.6 0.45 M0.93 -0.14 C25.21 -0.29, 49.64 0.64, 80.16 -0.03 M78.32 -0.65 C81.12 23.65, 77.64 47.91, 78.92 100.17 M80.71 0.68 C81.11 23.86, 80.73 47.44, 79.19 99.18 M81.17 100.87 C48.67 98.39, 14.18 99.65, 0.71 99.15 M80.26 99.37 C63.02 99.55, 48.19 100.67, 0.68 99.41 M1.53 100.25 C0.84 77.18, 0.55 54.46, -0.64 1.33 M-0.2 99.44 C-0.7 65.98, 0.76 33.15, 0.95 0.28" stroke="#000000" stroke-width="1" fill="none"></path></g><g stroke-linecap="round" transform="translate(151.41445371240377 210) rotate(0 40 50)"><path d="M0.45 0.14 C27.9 0.17, 56.06 -0.53, 81.27 -0.26 M-0.03 -0.65 C27.47 0.27, 55.19 -0.45, 80.84 0.06 M80.17 -1.21 C81.02 21.59, 81.84 43.23, 81.62 99.82 M79.18 1 C79.11 33.76, 80.13 69.02, 80.32 99.41 M79.15 98.05 C62.21 100.69, 47.54 99.03, -1.59 98.78 M79.41 99.31 C50.77 100.67, 23.75 100.67, 0.06 100.16 M1.33 100.65 C0.01 71.79, -0.78 40.55, -1.01 -1.52 M0.28 99.83 C-0.23 61.43, 0.7 20.23, 0.14 0.84" stroke="#000000" stroke-width="1" fill="none"></path></g><g stroke-linecap="round" transform="translate(91.41445371240377 330) rotate(0 40 50)"><path d="M-0.26 1 C33.07 -0.19, 62.85 -1.8, 78.91 0.8 M0.06 -0.91 C17.71 -1.21, 34.66 -1.27, 80.3 0.33 M79.82 0.86 C79.76 35.49, 79.04 76.2, 79.13 98.93 M79.41 -0.94 C80.47 36.23, 80.01 70.77, 79.35 100.2 M78.78 101.13 C54.89 100.72, 26.6 97.99, -1.44 100.25 M80.16 99.92 C50.26 99.73, 20.45 100.37, 0.19 100.47 M-1.52 101.91 C-0.09 73.95, 1.13 43.76, -1.12 2 M0.84 99.76 C1.4 65.48, 0.07 31.87, 0.52 0.84" stroke="#000000" stroke-width="1" fill="none"></path></g><g stroke-linecap="round" transform="translate(11.41445371240377 470) rotate(0 140 40)"><path d="M-0.5 1.28 C68.78 0.41, 138.04 0.97, 280.13 -0.93 M0.52 0.62 C92.37 -1.2, 184.54 -2.14, 279.37 0.76 M280.87 0.64 C278.39 18.65, 279.65 41.77, 279.15 78.05 M279.37 -0.79 C279.55 19.39, 280.67 38.33, 279.41 79.31 M280.19 80.09 C216.44 81.51, 152.95 81.15, 1.02 80.5 M279.57 79.61 C190.03 80.29, 100.96 80.29, 0.22 79.87 M-1.27 80.29 C0.88 59.99, 0.74 39.24, -1.12 -1.57 M0.96 79.36 C-1.12 51.48, -0.98 22.98, 0.61 0.99" stroke="#000000" stroke-width="1" fill="none"></path></g><g stroke-linecap="round"><g transform="translate(251.41445371240377 510) rotate(0 40.478434770749914 -0.6044326876569244)"><path d="M-0.65 0.1 C12.75 0.08, 65.77 0.24, 79.27 0.36 M1.21 -0.89 C15.09 -1.33, 68.5 -1.55, 81.6 -1.57" stroke="#000000" stroke-width="1" fill="none"></path></g></g><g stroke-linecap="round"><g transform="translate(371.41445371240377 470) rotate(0 -0.017176878153861708 50.6135131360125)"><path d="M0.39 0.85 C0.65 17.62, 0.9 84.36, 0.81 100.97 M-0.86 0.25 C-0.63 16.67, 0.3 83, 0.29 99.36" stroke="#000000" stroke-width="1" fill="none"></path></g></g><g stroke-linecap="round"><g transform="translate(351.41445371240377 470) rotate(0 80.331482186215 0.11399077288808712)"><path d="M-0.55 -0.97 C25.97 -0.85, 132.35 1.14, 159.02 1.2 M1.36 1.14 C28.26 0.91, 135.03 -0.17, 161.21 -0.3" stroke="#000000" stroke-width="1" fill="none"></path></g></g><g stroke-linecap="round"><g transform="translate(371.41445371240377 510) rotate(0 39.94176513068385 -0.38737664964929763)"><path d="M-0.64 0.7 C12.58 0.86, 67.2 0.69, 80.52 0.38 M1.22 0.03 C14.23 -0.15, 66.42 -1.46, 79.85 -1.54" stroke="#000000" stroke-width="1" fill="none"></path></g></g><g transform="translate(435.6114141616225 87.03990173339844) rotate(0 37.5 23)"><text x="0" y="32" font-family="Virgil, Segoe UI Emoji" font-size="36px" fill="#000000" text-anchor="start" style="white-space: pre;" direction="ltr">hero</text></g><g transform="translate(489.592493263185 496.9589538574219) rotate(0 57.5 23)"><text x="0" y="32" font-family="Virgil, Segoe UI Emoji" font-size="36px" fill="#000000" text-anchor="start" style="white-space: pre;" direction="ltr">footer</text></g></svg>